<?xml version="1.0" standalone="no"?>
<!DOCTYPE svg PUBLIC "-//W3C//DTD SVG 20010904//EN"
 "http://www.w3.org/TR/2001/REC-SVG-20010904/DTD/svg10.dtd">
<svg version="1.0" xmlns="http://www.w3.org/2000/svg"
 width="128.000000pt" height="128.000000pt" viewBox="0 0 128.000000 128.000000"
 preserveAspectRatio="xMidYMid meet">

<g transform="translate(0.000000,128.000000) scale(0.100000,-0.100000)"
fill="#000000" stroke="none">
<path d="M293 1190 c-37 -22 -58 -53 -68 -97 -5 -25 -13 -33 -38 -38 -18 -4
-42 -14 -55 -22 -25 -15 -62 -70 -62 -90 0 -23 19 -14 26 12 10 42 59 75 110
75 l44 0 0 43 c0 102 112 152 184 81 37 -38 43 -85 16 -130 l-21 -37 83 -84
c45 -45 89 -83 98 -83 8 0 -23 37 -68 83 l-83 83 16 30 c32 62 7 142 -56 176
-44 23 -86 23 -126 -2z"/>
<path d="M860 1192 c-62 -33 -87 -114 -55 -176 l15 -29 -263 -264 -263 -264
-30 16 c-114 59 -241 -73 -174 -182 22 -37 53 -58 97 -68 25 -5 33 -13 38 -38
10 -44 31 -75 68 -97 109 -67 241 60 182 174 l-16 30 264 263 264 263 29 -15
c62 -32 142 -6 176 56 44 82 -3 174 -99 194 -25 5 -33 13 -38 38 -10 44 -31
75 -68 97 -40 25 -82 25 -127 2z m143 -42 c21 -23 27 -40 27 -75 l0 -45 43 0
c102 0 152 -112 81 -184 -38 -37 -85 -43 -131 -16 l-37 21 -278 -279 -279
-278 21 -37 c27 -46 21 -93 -16 -131 -72 -71 -184 -21 -184 81 l0 43 -44 0
c-114 0 -157 143 -62 201 37 23 71 24 110 4 15 -8 33 -15 40 -15 14 0 546 531
546 546 0 7 -7 25 -15 40 -60 115 91 221 178 124z"/>
<path d="M110 832 c0 -11 41 -34 48 -27 4 4 -2 13 -12 21 -22 15 -36 18 -36 6z"/>
<path d="M243 822 c-33 -16 -44 -32 -20 -32 6 0 25 7 41 15 l30 16 83 -83 c46
-45 83 -76 83 -68 0 21 -151 170 -170 169 -8 -1 -30 -9 -47 -17z"/>
<path d="M820 610 c0 -9 38 -53 85 -100 80 -80 85 -83 103 -67 48 44 137 24
166 -38 20 -41 20 -58 1 -95 -21 -41 -53 -60 -102 -60 l-43 0 0 -44 c0 -85
-75 -135 -153 -103 -59 25 -82 92 -52 151 8 15 15 34 15 40 0 17 -153 166
-170 166 -8 0 23 -37 68 -83 l83 -83 -16 -30 c-32 -62 -7 -142 56 -176 82 -44
174 3 194 99 5 25 13 33 38 38 44 10 75 31 97 68 67 110 -60 241 -174 182
l-30 -16 -83 83 c-46 45 -83 76 -83 68z"/>
</g>
</svg>
